<svg width="141" height="27" viewBox="0 0 141 27" fill="none" xmlns="http://www.w3.org/2000/svg">
<g clip-path="url(#clip0_3140_7401)">
<path d="M74.1055 4.31383C74.1055 2.38311 75.6412 0.935059 77.7416 0.935059C79.8103 0.935059 81.3778 2.38311 81.3778 4.31383C81.3778 6.24456 79.842 7.69261 77.7416 7.69261C75.6412 7.72275 74.1055 6.27472 74.1055 4.31383ZM80.6258 4.31383C80.6258 2.71495 79.4031 1.56858 77.7416 1.56858C76.0801 1.56858 74.8263 2.74511 74.8263 4.31383C74.8263 5.88254 76.0801 7.05911 77.7416 7.05911C79.4031 7.08925 80.6258 5.91271 80.6258 4.31383Z" fill="white"/>
<path d="M87.9291 7.66263L86.3616 5.52074C86.1736 5.55091 86.0167 5.55091 85.797 5.55091H83.9474V7.66263H83.2266V0.995605H85.8287C87.5842 0.995605 88.65 1.8403 88.65 3.28835C88.65 4.34421 88.0854 5.06823 87.0825 5.36991L88.7751 7.66263H87.9291ZM87.8974 3.28835C87.8974 2.23248 87.1765 1.62913 85.797 1.62913H83.9474V4.97773H85.797C87.1454 4.94756 87.8974 4.31404 87.8974 3.28835Z" fill="white"/>
<path d="M95.4212 4.31383H96.111V6.84788C95.453 7.4211 94.5434 7.69261 93.5717 7.69261C91.4719 7.69261 89.9355 6.24456 89.9355 4.31383C89.9355 2.38311 91.4719 0.935059 93.6034 0.935059C94.6381 0.935059 95.547 1.2669 96.1738 1.90042L95.735 2.35294C95.1392 1.80992 94.4494 1.56858 93.6663 1.56858C91.9419 1.56858 90.6882 2.74511 90.6882 4.31383C90.6882 5.88255 91.9419 7.05911 93.6346 7.05911C94.2932 7.05911 94.9201 6.90823 95.453 6.54624V4.31383H95.4212Z" fill="white"/>
<path d="M102.693 5.88276H98.837L98.0222 7.66263H97.2695L100.436 0.995605H101.157L104.323 7.66263H103.539L102.693 5.88276ZM102.442 5.30957L100.781 1.7498L99.119 5.30957H102.442Z" fill="white"/>
<path d="M111.44 0.995605V7.66263H110.844L106.393 2.26265V7.66263H105.641V0.995605H106.236L110.687 6.39564V0.995605H111.44Z" fill="white"/>
<path d="M113.885 0.995605H114.606V7.66263H113.885V0.995605Z" fill="white"/>
<path d="M116.455 4.31383C116.455 2.35294 117.991 0.935059 120.091 0.935059C121.094 0.935059 122.004 1.2669 122.631 1.90042L122.16 2.35294C121.596 1.80992 120.906 1.56858 120.122 1.56858C118.461 1.56858 117.207 2.74511 117.207 4.31383C117.207 5.88254 118.461 7.05911 120.122 7.05911C120.906 7.05911 121.596 6.81774 122.16 6.27472L122.631 6.72726C122.004 7.36076 121.094 7.69261 120.091 7.69261C117.991 7.72275 116.455 6.27472 116.455 4.31383Z" fill="white"/>
<path d="M75.4533 11.1619V13.7865H79.0272V14.3898H75.4533V17.1954H74.7324V10.5283H79.4661V11.1317H75.4533V11.1619Z" fill="white"/>
<path d="M80.4688 13.8768C80.4688 11.9461 82.0045 10.498 84.1049 10.498C86.1742 10.498 87.7411 11.9461 87.7411 13.8768C87.7411 15.8378 86.2053 17.2556 84.1049 17.2556C82.0045 17.2556 80.4688 15.8076 80.4688 13.8768ZM86.989 13.8768C86.989 12.278 85.7664 11.1316 84.1049 11.1316C82.4434 11.1316 81.1896 12.3081 81.1896 13.8768C81.1896 15.4757 82.4434 16.6221 84.1049 16.6221C85.7664 16.6221 86.989 15.4456 86.989 13.8768Z" fill="white"/>
<path d="M88.9629 13.8768C88.9629 11.9461 90.4993 10.498 92.599 10.498C94.6683 10.498 96.2358 11.9461 96.2358 13.8768C96.2358 15.8378 94.6994 17.2556 92.599 17.2556C90.4993 17.2556 88.9629 15.8076 88.9629 13.8768ZM95.4832 13.8768C95.4832 12.278 94.2605 11.1316 92.599 11.1316C90.9382 11.1316 89.6838 12.3081 89.6838 13.8768C89.6838 15.4757 90.9382 16.6221 92.599 16.6221C94.2294 16.6221 95.4832 15.4456 95.4832 13.8768Z" fill="white"/>
<path d="M98.0547 10.5283H100.876C103.101 10.5283 104.575 11.8859 104.575 13.8468C104.575 15.8077 103.07 17.1652 100.876 17.1652H98.0547V10.5283ZM100.814 16.592C102.663 16.592 103.823 15.4759 103.823 13.8769C103.823 12.278 102.631 11.1619 100.814 11.1619H98.7756V16.592H100.814Z" fill="white"/>
<path d="M105.734 16.3808L106.016 15.8378C106.518 16.2902 107.396 16.6523 108.305 16.6523C109.59 16.6523 110.154 16.1394 110.154 15.4757C110.154 13.6657 105.891 14.7819 105.891 12.3081C105.891 11.3428 106.675 10.498 108.431 10.498C109.214 10.498 110.029 10.7093 110.562 11.1014L110.311 11.6746C109.715 11.3126 109.026 11.1316 108.431 11.1316C107.177 11.1316 106.612 11.6746 106.612 12.3383C106.612 14.1484 110.876 13.0623 110.876 15.4757C110.876 16.4411 110.06 17.2858 108.305 17.2858C107.271 17.2556 106.267 16.8936 105.734 16.3808Z" fill="white"/>
<path d="M74.7324 20.0918H75.4533V26.7588H74.7324V20.0918Z" fill="white"/>
<path d="M83.6661 20.0918V26.7588H83.0703L78.6193 21.3589V26.7588H77.8984V20.0918H78.4942L82.9452 25.4918V20.0918H83.6661Z" fill="white"/>
<path d="M91.7846 20.0918L88.7124 26.7588H87.9916L84.9512 20.0918H85.7349L88.3676 25.884L91.0326 20.0918H91.7846Z" fill="white"/>
<path d="M97.8665 26.1253V26.7286H92.9766V20.0918H97.7096V20.6952H93.7286V23.0482H97.3025V23.6516H93.7286V26.1253H97.8665Z" fill="white"/>
<path d="M99.1191 25.914L99.4018 25.3709C99.9029 25.8234 100.781 26.1855 101.69 26.1855C102.975 26.1855 103.539 25.6726 103.539 25.0089C103.539 23.1989 99.276 24.3151 99.276 21.8413C99.276 20.876 100.06 20.0312 101.815 20.0312C102.599 20.0312 103.414 20.2424 103.947 20.6346L103.696 21.2078C103.1 20.8458 102.411 20.6648 101.815 20.6648C100.562 20.6648 99.9969 21.2078 99.9969 21.8715C99.9969 23.6815 104.261 22.5955 104.261 25.0089C104.261 25.9743 103.445 26.819 101.69 26.819C100.656 26.7888 99.652 26.4268 99.1191 25.914Z" fill="white"/>
<path d="M107.301 20.6952H104.855V20.0918H110.436V20.6952H107.991V26.7286H107.27V20.6952H107.301Z" fill="white"/>
<path d="M119.026 20.0918V26.7588H118.336V21.4192L115.609 25.884H115.264L112.537 21.4493V26.7588H111.848V20.0918H112.443L115.452 25.0393L118.43 20.0918H119.026Z" fill="white"/>
<path d="M126.361 26.1253V26.7286H121.471V20.0918H126.204V20.6952H122.192V23.0482H125.765V23.6516H122.192V26.1253H126.361Z" fill="white"/>
<path d="M134.041 20.0918V26.7588H133.445L128.994 21.3589V26.7588H128.273V20.0918H128.869L133.32 25.4918V20.0918H134.041Z" fill="white"/>
<path d="M137.833 20.6952H135.42V20.0918H141V20.6952H138.554V26.7286H137.833V20.6952Z" fill="white"/>
<path d="M41.1276 7.39109V11.8257H52.3186V18.4023H41.1276V26.6682H32.0682V0.814527H53.9173V7.39109H41.1276ZM57.3655 0.814527H66.425V26.6682H57.3655V0.814527ZM29.0903 13.5453C29.0589 4.52514 25.4226 0 14.5451 0C3.66763 0 0.0313473 4.52514 0 13.5453C0.0313473 22.0525 3.29146 26.5173 12.821 26.9699C12.9151 18.3419 16.1439 9.4726 23.4164 9.32178C23.7299 13.1832 20.2503 17.5274 15.5482 17.0749C14.4511 19.9106 14.5138 23.3799 15.2661 26.9699C25.5794 26.7587 29.0589 22.2637 29.0903 13.5453ZM13.3853 16.8938C8.80856 16.9542 5.57981 12.9721 6.05002 8.62794C10.8775 8.89945 13.7615 11.9162 13.3853 16.8938Z" fill="white"/>
</g>
<defs>
<clipPath id="clip0_3140_7401">
<rect width="141" height="27" fill="white"/>
</clipPath>
</defs>
</svg>
