<svg width="12" height="12" viewBox="0 0 12 12" fill="none" xmlns="http://www.w3.org/2000/svg">
<path d="M2.40625 5.1875C3.38542 7.125 4.85417 8.59375 6.8125 9.59375L8.28125 8.125C8.46875 7.91667 8.69792 7.86458 8.96875 7.96875C9.71875 8.21875 10.5104 8.34375 11.3438 8.34375C11.5104 8.34375 11.6562 8.40625 11.7812 8.53125C11.9271 8.65625 12 8.8125 12 9V11.3438C12 11.5104 11.9271 11.6667 11.7812 11.8125C11.6562 11.9375 11.5104 12 11.3438 12C9.28125 12 7.375 11.5 5.625 10.5C3.89583 9.47917 2.52083 8.10417 1.5 6.375C0.5 4.625 0 2.71875 0 0.65625C0 0.489583 0.0625 0.34375 0.1875 0.21875C0.333333 0.0729167 0.489583 0 0.65625 0H3C3.1875 0 3.34375 0.0729167 3.46875 0.21875C3.59375 0.34375 3.65625 0.489583 3.65625 0.65625C3.65625 1.48958 3.78125 2.28125 4.03125 3.03125C4.11458 3.30208 4.0625 3.53125 3.875 3.71875L2.40625 5.1875Z" fill="#C8A464"/>
</svg>
